<svg xmlns="http://www.w3.org/2000/svg" viewBox="0 0 36 36">
  <style>
    @keyframes colorChange {
      0% { fill: #000000; }
      50% { fill: #7a1b1b; }
      100% { fill: #000000; }
    }
    .bg {
      animation: colorChange 20s ease-in-out infinite;
    }
  </style>
  <rect width="36" height="36" class="bg" />
  <g transform="translate(6, 6)" stroke="white" stroke-width="2" fill="none" stroke-linecap="round" stroke-linejoin="round">
    <path d="M20 13c0 5-3.5 7.5-7.66 8.95a1 1 0 0 1-.67-.01C7.5 20.5 4 18 4 13V6a1 1 0 0 1 1-1c2 0 4.5-1.2 6.24-2.72a1.17 1.17 0 0 1 1.52 0C14.51 3.81 17 5 19 5a1 1 0 0 1 1 1z"/>
    <path d="m9 12 2 2 4-4"/>
  </g>
</svg>
